<svg width="162" height="162" viewBox="0 0 162 162" fill="none" xmlns="http://www.w3.org/2000/svg">
<path d="M50.9288 90.5175C52.4874 90.8968 54.0836 91.1005 55.6875 91.125C59.709 91.1239 63.6391 89.9255 66.9769 87.6825L83.2781 102.212C81.9868 104.664 81.229 107.362 81.0545 110.128C80.8799 112.893 81.2927 115.665 82.2656 118.26C83.2875 121.2 84.9736 123.865 87.1927 126.048C89.4118 128.231 92.1043 129.873 95.061 130.846C98.0177 131.82 101.159 132.099 104.241 131.661C107.323 131.223 110.262 130.081 112.831 128.323C115.4 126.564 117.528 124.238 119.052 121.523C120.576 118.809 121.453 115.78 121.616 112.671C121.778 109.562 121.222 106.458 119.991 103.599C118.759 100.741 116.885 98.2044 114.514 96.1875L127.372 70.4194C129.882 70.9855 132.481 71.0396 135.012 70.5786C137.543 70.1176 139.955 69.1509 142.104 67.7363C145.754 65.509 148.605 62.1836 150.249 58.2367C151.893 54.2898 152.245 49.9239 151.256 45.7644C150.266 41.6049 147.985 37.8654 144.74 35.0815C141.495 32.2977 137.452 30.6124 133.191 30.2671C128.929 29.9218 124.668 30.9342 121.017 33.1594C117.366 35.3845 114.513 38.7081 112.867 42.654C111.22 46.5999 110.865 50.9657 111.852 55.1257C112.839 59.2858 115.118 63.0267 118.361 65.8125L105.503 91.5806C104.106 91.2736 102.68 91.1208 101.25 91.125C97.2285 91.1261 93.2984 92.3245 89.9606 94.5675L73.6594 80.0381C74.9507 77.586 75.7085 74.8883 75.883 72.1224C76.0576 69.3565 75.6448 66.585 74.6719 63.99C73.6575 61.0711 71.9886 58.423 69.7929 56.2487C67.5972 54.0743 64.933 52.4313 62.0043 51.4454C59.0756 50.4596 55.9602 50.1571 52.8966 50.5611C49.8329 50.9651 46.9024 52.0649 44.3294 53.7762C41.7564 55.4875 39.6092 57.765 38.0522 60.4343C36.4953 63.1035 35.5698 66.0937 35.3468 69.1758C35.1238 72.2579 35.6091 75.3501 36.7655 78.2157C37.922 81.0813 39.7189 83.6442 42.0188 85.7081L20.25 126.562V10.125H10.125V141.75C10.125 144.435 11.1917 147.011 13.0905 148.909C14.9893 150.808 17.5647 151.875 20.25 151.875H151.875V141.75H23.6419L50.9288 90.5175ZM131.625 40.5C133.628 40.5 135.585 41.0938 137.25 42.2064C138.915 43.3189 140.213 44.9002 140.979 46.7503C141.746 48.6004 141.946 50.6362 141.555 52.6003C141.165 54.5643 140.2 56.3684 138.784 57.7845C137.368 59.2005 135.564 60.1648 133.6 60.5555C131.636 60.9461 129.6 60.7456 127.75 59.9793C125.9 59.2129 124.319 57.9152 123.206 56.2501C122.094 54.5851 121.5 52.6275 121.5 50.625C121.5 47.9397 122.567 45.3644 124.466 43.4655C126.364 41.5667 128.94 40.5 131.625 40.5ZM111.375 111.375C111.375 113.378 110.781 115.335 109.669 117C108.556 118.665 106.975 119.963 105.125 120.729C103.275 121.496 101.239 121.696 99.2747 121.305C97.3107 120.915 95.5066 119.95 94.0905 118.534C92.6745 117.118 91.7102 115.314 91.3195 113.35C90.9289 111.386 91.1294 109.35 91.8957 107.5C92.6621 105.65 93.9598 104.069 95.6248 102.956C97.2899 101.844 99.2475 101.25 101.25 101.25C103.935 101.25 106.511 102.317 108.409 104.216C110.308 106.114 111.375 108.69 111.375 111.375ZM55.6875 60.75C57.69 60.75 59.6476 61.3438 61.3126 62.4564C62.9777 63.5689 64.2754 65.1502 65.0418 67.0003C65.8081 68.8504 66.0086 70.8862 65.618 72.8503C65.2273 74.8143 64.263 76.6184 62.847 78.0345C61.4309 79.4505 59.6268 80.4148 57.6628 80.8055C55.6987 81.1961 53.6629 80.9956 51.8128 80.2293C49.9627 79.4629 48.3814 78.1652 47.2689 76.5001C46.1563 74.8351 45.5625 72.8775 45.5625 70.875C45.5625 68.1897 46.6292 65.6144 48.528 63.7155C50.4269 61.8167 53.0022 60.75 55.6875 60.75Z" fill="#519BFF"/>
</svg>
