<svg width="162" height="162" viewBox="0 0 162 162" fill="none" xmlns="http://www.w3.org/2000/svg">
<path d="M23.0203 31.3065V91.5219C23.0203 124.303 48.9808 150.871 81.0002 150.871C113.019 150.871 138.98 124.303 138.98 91.5219V31.3389L80.6518 11.7126L23.0203 31.3065ZM80.6357 0L149.85 23.2794V91.5219C149.85 130.442 119.022 162 81.0002 162C42.9788 162 12.1501 130.442 12.1501 91.5219V23.2794L80.6357 0ZM116.43 52.5285C115.901 52.0428 115.28 51.6686 114.603 51.4282C113.927 51.1878 113.209 51.0861 112.492 51.1292C111.775 51.1723 111.075 51.3593 110.432 51.679C109.789 51.9987 109.217 52.4447 108.751 52.9902L73.7911 93.2391L51.2083 68.2506C50.7309 67.7157 50.1507 67.2823 49.5023 66.9762C48.8539 66.6701 48.1506 66.4976 47.4342 66.4689C46.7178 66.4401 46.0029 66.5558 45.3321 66.8091C44.6613 67.0623 44.0483 67.4478 43.5295 67.9428C42.4675 68.9579 41.8423 70.3466 41.7864 71.8146C41.7304 73.2827 42.2481 74.7149 43.2298 75.8079L69.8788 105.292C70.3864 105.863 71.0103 106.318 71.7086 106.627C72.4069 106.936 73.1634 107.092 73.927 107.085C74.6907 107.077 75.4438 106.906 76.1358 106.583C76.8277 106.259 77.4424 105.792 77.9383 105.211L116.875 60.3855C117.836 59.2746 118.327 57.8333 118.244 56.3668C118.16 54.9003 117.51 53.5237 116.43 52.5285Z" fill="#519BFF"/>
</svg>
