<svg width="162" height="162" viewBox="0 0 162 162" fill="none" xmlns="http://www.w3.org/2000/svg">
<path d="M60.75 27C30.915 27 6.75 51.165 6.75 81C6.75 110.835 30.915 135 60.75 135C90.585 135 114.75 110.835 114.75 81C114.75 51.165 90.585 27 60.75 27ZM60.75 121.5C38.4075 121.5 20.25 103.342 20.25 81C20.25 58.6575 38.4075 40.5 60.75 40.5C83.0925 40.5 101.25 58.6575 101.25 81C101.25 103.342 83.0925 121.5 60.75 121.5ZM81 70.875H67.5V104.625H54V70.875H40.5V60.75H81V70.875ZM136.688 25.3125L155.25 33.75L136.688 42.1875L128.25 60.75L119.812 42.1875L101.25 33.75L119.812 25.3125L128.25 6.75L136.688 25.3125ZM136.688 119.812L155.25 128.25L136.688 136.688L128.25 155.25L119.812 136.688L101.25 128.25L119.812 119.812L128.25 101.25L136.688 119.812Z" fill="#519BFF"/>
</svg>
